<?xml version="1.0" standalone="no"?>
<!DOCTYPE svg PUBLIC "-//W3C//DTD SVG 20010904//EN"
 "http://www.w3.org/TR/2001/REC-SVG-20010904/DTD/svg10.dtd">
<svg version="1.0" xmlns="http://www.w3.org/2000/svg"
 width="500.000000pt" height="500.000000pt" viewBox="0 0 500.000000 500.000000"
 preserveAspectRatio="xMidYMid meet">

<g transform="translate(0.000000,500.000000) scale(0.100000,-0.100000)"
fill="#000000" stroke="none">
<path d="M3106 3459 c-347 -51 -669 -286 -816 -595 -38 -80 -76 -191 -68 -199
11 -11 340 7 343 19 71 276 150 424 294 558 185 172 422 218 674 133 85 -29
193 -100 247 -164 78 -91 134 -223 148 -353 5 -46 11 -64 23 -66 15 -3 17 23
23 235 4 131 9 266 12 301 7 80 -9 83 -59 8 l-36 -54 -113 57 c-124 63 -220
96 -336 117 -85 15 -245 16 -336 3z"/>
<path d="M1137 3433 c-47 -8 -24 -28 39 -34 63 -6 108 -25 137 -57 42 -46 46
-83 47 -399 l0 -303 123 0 c67 0 139 3 160 6 l37 7 0 309 c0 286 1 312 19 346
29 55 78 83 156 90 45 3 65 9 65 18 0 17 -42 28 -74 20 -27 -7 -604 -9 -651
-2 -16 2 -43 2 -58 -1z"/>
<path d="M1320 2390 c0 -47 4 -80 10 -80 6 0 10 33 10 80 0 47 -4 80 -10 80
-6 0 -10 -33 -10 -80z"/>
<path d="M1554 2445 c-21 -32 -9 -47 46 -64 41 -12 50 -27 28 -49 -19 -19 -45
-14 -62 10 -18 25 -36 16 -20 -10 16 -24 93 -24 108 1 16 25 -3 48 -53 65 -30
10 -41 19 -39 31 5 24 56 27 74 4 12 -16 13 -17 14 -1 0 41 -72 50 -96 13z"/>
<path d="M1881 2416 c-29 -78 -35 -106 -23 -106 6 0 12 10 14 23 2 17 11 23
36 25 27 3 34 -1 42 -22 5 -14 14 -26 19 -26 14 0 -41 153 -56 157 -6 2 -20
-20 -32 -51z m48 -23 c1 -7 -8 -13 -19 -13 -23 0 -25 12 -8 43 11 21 11 21 19
2 4 -11 8 -26 8 -32z"/>
<path d="M2432 2463 c-7 -3 -19 -18 -28 -35 -17 -33 -12 -72 13 -100 18 -20
78 -24 89 -7 4 8 9 7 15 -2 6 -9 9 3 9 34 0 46 -1 47 -30 47 -16 0 -30 -4 -30
-10 0 -5 11 -10 25 -10 14 0 25 -4 25 -10 0 -15 -38 -50 -55 -50 -25 0 -55 38
-55 68 0 53 60 81 95 46 9 -9 19 -13 23 -9 4 4 -4 15 -17 26 -22 18 -52 23
-79 12z"/>
<path d="M2740 2390 c0 -47 4 -80 10 -80 6 0 10 16 10 36 0 35 1 35 38 32 34
-3 37 -6 40 -35 2 -18 8 -33 13 -33 8 0 6 21 -7 72 -3 9 0 19 6 23 15 9 12 31
-6 49 -9 10 -33 16 -60 16 l-44 0 0 -80z m95 35 c0 -16 -8 -21 -37 -23 -35 -3
-38 -1 -38 23 0 24 3 26 38 23 29 -2 37 -7 37 -23z"/>
<path d="M3081 2453 c-54 -45 -25 -143 42 -143 38 0 50 7 66 37 18 35 13 72
-14 98 -28 29 -64 32 -94 8z m83 -19 c24 -24 20 -80 -6 -98 -12 -9 -28 -16
-35 -16 -22 0 -53 39 -53 67 0 53 59 83 94 47z"/>
<path d="M3400 2402 c0 -77 9 -92 56 -92 50 0 64 21 64 96 0 36 -4 64 -10 64
-6 0 -10 -28 -10 -65 0 -54 -3 -66 -20 -75 -12 -6 -30 -8 -40 -5 -17 6 -20 16
-20 76 0 39 -4 69 -10 69 -6 0 -10 -29 -10 -68z"/>
<path d="M3732 2388 c1 -46 3 -66 5 -45 4 33 7 37 33 37 47 0 60 9 60 45 0 37
-12 45 -66 45 l-34 0 2 -82z m82 53 c13 -21 -7 -41 -40 -41 -30 0 -34 3 -34
25 0 22 4 25 34 25 19 0 37 -4 40 -9z"/>
<path d="M3470 2167 c0 -11 12 -18 38 -22 149 -23 190 -45 225 -124 28 -64 34
-197 13 -281 -43 -167 -182 -298 -367 -346 -85 -23 -256 -23 -327 -1 -186 57
-337 211 -421 430 -33 88 -66 214 -77 296 l-7 53 -36 -6 c-20 -3 -98 -6 -173
-6 -161 0 -152 10 -113 -126 86 -299 293 -534 563 -641 121 -47 207 -63 368
-70 212 -9 318 16 584 134 139 61 237 95 310 107 l35 6 -3 197 c-4 217 5 287
41 321 31 29 82 49 150 57 87 11 68 30 -29 29 -429 -4 -533 -4 -645 2 -115 6
-129 5 -129 -9z"/>
<path d="M1393 2133 l-32 -4 -3 -302 c-3 -283 -4 -304 -24 -342 -27 -52 -86
-85 -164 -92 -38 -4 -60 -10 -60 -18 0 -10 92 -12 408 -11 265 1 406 4 405 11
-1 6 -26 13 -55 16 -94 11 -153 48 -177 112 -7 18 -11 141 -11 333 l0 304
-127 -2 c-71 0 -142 -3 -160 -5z"/>
</g>
</svg>
